<svg width="276" height="146" viewBox="0 0 276 146" fill="none" xmlns="http://www.w3.org/2000/svg">
<rect x="174.08" y="68.3999" width="56.64" height="60.72" fill="black"/>
<g filter="url(#filter0_d)">
<path fill-rule="evenodd" clip-rule="evenodd" d="M154.718 114.445C150.586 117.463 149.302 120.814 148.976 121.912C148.903 122.158 148.88 122.412 148.88 122.668V133.52C148.88 135.729 150.671 137.52 152.88 137.52H265.36C267.569 137.52 269.36 135.729 269.36 133.52V123.518C269.36 122.789 269.161 122.076 268.818 121.432C267.408 118.792 263.701 111.055 263.12 101.76C262.4 90.2428 263.963 77.6428 263.963 77.6428L262.4 64.6828L257.732 35.8378C257.724 35.7878 257.716 35.7413 257.706 35.6916C257.43 34.3213 253.26 13.5953 252.68 11.0427C252.341 9.55279 252.538 7.03081 252.687 5.1163C252.737 4.46838 252.782 3.89003 252.8 3.4448C252.823 2.8403 252.473 2.8179 252.126 3.31349C251.281 4.52071 249.805 4.18925 250.048 2.73574C250.107 2.38213 250.174 2.04321 250.236 1.73169C250.443 0.685974 250.589 -0.0508669 250.16 0.00274635C249.2 0.122746 240.8 11.0427 238.88 13.6827C237.08 16.8027 230.6 29.1627 230.6 29.1627C230.6 29.1627 222.08 26.1627 217.88 25.4427C213.68 24.7227 204.92 24.4827 204.92 24.4827C204.92 24.4827 195.8 19.2027 191.6 17.7627C191.352 17.6778 191.1 17.5913 190.845 17.5034C186.764 16.1005 181.703 14.3603 176.96 13.6827L157.42 8.2551C156.178 7.90993 155.539 8.48437 156.565 9.26518C156.646 9.3262 156.727 9.38769 156.809 9.44954C157.319 9.83441 157.847 10.233 158.2 10.6155C158.727 11.1877 157.914 11.5322 157.137 11.4961C156.605 11.4714 156.389 12.1671 156.682 12.6111C158.497 15.3549 164.938 25.1394 167.505 29.6436C167.849 30.2472 168.2 30.9377 168.553 31.6355C168.989 32.4945 169.43 33.3644 169.872 34.0964L172.4 38.2828C172.094 38.6766 170.989 39.7884 169.646 41.1412C167.305 43.4982 164.239 46.5866 163.4 47.8827C163.256 48.1056 163.06 48.3957 162.824 48.7458C160.898 51.6005 156.283 58.4417 155 65.2828C153.735 72.0274 154.692 74.3296 154.944 73.5712C155 73.4022 155.023 73.2257 155.046 73.0491C155.066 72.9012 155.085 72.7533 155.124 72.6094C155.475 71.3079 156.53 67.6313 157.786 65.5131C158.125 64.9419 158.546 64.9532 158.566 65.617C158.584 66.2296 158.566 67.1051 158.546 68.1326C158.49 70.9218 158.411 74.831 158.96 77.6428C159.92 82.5627 165.08 90.2428 165.08 90.2428C165.08 90.2428 163.28 93.2428 161.84 98.4028C161.081 101.122 160.989 103.407 160.913 105.278C160.845 106.957 160.791 108.301 160.28 109.323C159.609 110.664 158.476 111.496 157.254 112.394C156.592 112.88 155.903 113.386 155.247 114.003C155.08 114.16 154.903 114.31 154.718 114.445ZM176.12 79.0802C175.959 80.5715 175.959 80.5715 175.959 80.5715L175.959 80.5715L175.961 80.5716L175.968 80.5725L176.001 80.5761C176.03 80.5794 176.075 80.5844 176.133 80.5912C176.25 80.6048 176.422 80.6253 176.642 80.6528C177.08 80.7077 177.705 80.7904 178.445 80.9007C179.929 81.1221 181.853 81.4513 183.659 81.8858C184.264 82.0314 184.526 82.2295 184.612 82.321C184.619 82.3285 184.624 82.3348 184.629 82.34C184.609 82.3894 184.548 82.5015 184.375 82.6538C184.137 82.8641 183.73 83.1031 183.121 83.2771C181.13 83.8462 179.063 84.4473 177.495 84.906C176.711 85.1354 176.051 85.3292 175.587 85.4658L175.047 85.6249L174.904 85.6671L174.867 85.678L174.858 85.6808L174.856 85.6815L174.855 85.6816L174.855 85.6817L175.28 87.1202L175.705 88.5586L175.706 88.5585L175.706 88.5584L175.708 88.5577L175.718 88.555L175.754 88.5442L175.896 88.5023L176.434 88.3437C176.897 88.2076 177.555 88.0142 178.337 87.7853C179.902 87.3275 181.962 86.7283 183.945 86.1617C185.741 85.6485 187.362 84.467 187.608 82.7353C187.739 81.8181 187.432 80.9405 186.796 80.2647C186.189 79.6194 185.332 79.2028 184.361 78.969C182.435 78.5057 180.415 78.1613 178.887 77.9335C178.121 77.8192 177.472 77.7334 177.015 77.676C176.786 77.6474 176.604 77.6257 176.479 77.6112C176.416 77.604 176.368 77.5985 176.334 77.5947L176.296 77.5905L176.286 77.5893L176.283 77.589L176.282 77.5889L176.281 77.5889C176.281 77.5889 176.281 77.5888 176.12 79.0802ZM227 84.0003C227.083 85.498 227.083 85.498 227.083 85.498L227.083 85.498L227.082 85.4981L227.076 85.4984L227.048 85.5L226.936 85.507C226.836 85.5133 226.688 85.5232 226.5 85.537C226.123 85.5646 225.584 85.6079 224.941 85.6706C223.65 85.7964 221.96 85.998 220.327 86.3019C219.735 86.4119 219.461 86.597 219.36 86.6957C219.312 86.7422 219.3 86.7701 219.299 86.7736L219.299 86.774C219.298 86.7755 219.297 86.7772 219.297 86.7806C219.296 86.7835 219.296 86.7875 219.297 86.7935C219.3 86.8556 219.469 87.4608 220.7 87.9222C222.67 88.6602 224.735 89.4279 226.308 90.0113C227.094 90.303 227.757 90.5485 228.224 90.7211L228.767 90.9219L228.91 90.975L228.947 90.9886L228.957 90.992L228.959 90.9929L228.959 90.9931L228.96 90.9932L228.44 92.4003L227.92 93.8074L227.92 93.8073L227.92 93.8071L227.917 93.8062L227.908 93.8028L227.871 93.7891L227.727 93.7358L227.183 93.5346C226.716 93.3618 226.052 93.116 225.264 92.824C223.69 92.2401 221.622 91.4711 219.648 90.7316C217.869 90.0651 216.396 88.7145 216.301 86.9556C216.252 86.0439 216.604 85.1903 217.269 84.5438C217.912 83.9199 218.789 83.5365 219.778 83.3525C221.529 83.0268 223.313 82.815 224.65 82.6847C225.321 82.6194 225.884 82.574 226.281 82.545C226.479 82.5304 226.637 82.5199 226.745 82.513L226.824 82.5081L226.87 82.5053L226.904 82.5033L226.913 82.5028L226.916 82.5027L226.917 82.5026L226.917 82.5026C226.917 82.5026 226.917 82.5026 227 84.0003ZM199.947 106.489L199.947 106.488C200.023 104.777 200.145 102.019 198.189 101.912C196.148 101.8 195.332 104.727 195.407 106.185C195.483 107.643 195.715 109.843 197.251 110.139C198.788 110.435 199.867 108.384 199.938 106.701C199.941 106.632 199.944 106.562 199.947 106.489Z" fill="#4E2C2A"/>
</g>
<path fill-rule="evenodd" clip-rule="evenodd" d="M191.84 122.325C190.16 122.325 179.72 112.683 176.84 109.323C176.706 109.167 176.575 109.015 176.447 108.866C173.822 105.811 172.421 104.18 171.44 99.6028C171.137 98.1879 171.2 96.2309 171.44 94.1743C171.906 90.1814 173.038 85.813 173.448 84.3077C173.547 83.9454 173.599 83.5735 173.615 83.1984C173.663 82.0863 173.861 79.554 174.68 77.6428C175.686 75.2957 180.127 73.365 180.731 73.1111C180.778 73.0914 180.824 73.0742 180.871 73.0569L188.96 70.1359C189.279 70.0209 189.581 69.866 189.86 69.6749L192.69 67.7389C192.803 67.6615 192.919 67.5907 193.038 67.5233C193.573 67.2208 195.191 66.2722 196.28 65.2828C199.745 62.1328 195.953 68.5904 192.459 73.7469C191.179 75.6351 191.937 77.8655 194.079 77.0803C196.728 76.1087 199.577 74.0316 200.532 73.2422C200.661 73.1359 200.788 73.036 200.926 72.9412C201.715 72.3964 204.598 70.3926 206.442 68.9139C206.948 68.508 207.84 68.2458 207.552 68.8271C207.199 69.5395 206.12 70.809 205.069 72.0442C203.272 74.1581 201.56 76.1719 203.72 75.1228C207.345 73.8651 209.374 71.6039 211.268 69.4922C212.366 68.2686 213.419 67.0951 214.711 66.1962C214.901 66.0642 215.087 65.9227 215.255 65.7644C215.679 65.3666 216.083 64.9697 216.47 64.5755C219.198 61.7925 225.705 62.7882 226.633 66.5734C226.638 66.5911 226.639 66.5968 226.643 66.6145C226.76 67.1206 229.915 80.761 231.391 85.3816C231.632 86.135 231.739 86.9409 231.533 87.7046C229.941 93.6121 224.6 99.4109 220.864 103.467C218.558 105.971 216.864 107.811 217.04 108.603C217.319 109.86 219.713 108.596 221.547 107.628C222.863 106.933 223.89 106.391 223.64 107.043C223.223 108.127 221.416 112.107 219.184 115.2C218.204 116.559 217.142 117.747 216.08 118.443C213.639 120.042 202.083 121.669 195.68 122.283C193.589 122.483 192.742 122.401 192.234 122.352C192.08 122.337 191.957 122.325 191.84 122.325ZM176.12 79.0802C175.959 80.5715 175.959 80.5715 175.959 80.5715L175.959 80.5715L175.96 80.5717L175.968 80.5725L176.001 80.5761C176.03 80.5794 176.075 80.5844 176.133 80.5912C176.25 80.6048 176.422 80.6253 176.641 80.6528C177.08 80.7077 177.705 80.7904 178.444 80.9007C179.929 81.1221 181.853 81.4513 183.659 81.8858C184.264 82.0314 184.525 82.2296 184.612 82.321C184.619 82.3285 184.624 82.3348 184.629 82.34C184.609 82.3894 184.548 82.5015 184.375 82.6538C184.136 82.8641 183.73 83.1031 183.121 83.2771C181.129 83.8462 179.063 84.4473 177.495 84.906C176.711 85.1354 176.051 85.3293 175.587 85.4658L175.047 85.6249L174.904 85.6671L174.867 85.678L174.858 85.6808L174.855 85.6815L174.855 85.6817L174.855 85.6817L175.28 87.1202L175.705 88.5586L175.705 88.5585L175.706 88.5584L175.708 88.5577L175.717 88.555L175.754 88.5442L175.896 88.5023L176.434 88.3437C176.897 88.2076 177.555 88.0142 178.337 87.7853C179.902 87.3275 181.962 86.7283 183.945 86.1617C185.741 85.6486 187.361 84.467 187.608 82.7353C187.739 81.8181 187.432 80.9405 186.796 80.2647C186.188 79.6194 185.332 79.2028 184.36 78.969C182.435 78.5057 180.414 78.1613 178.887 77.9335C178.12 77.8192 177.472 77.7334 177.015 77.6761C176.786 77.6474 176.604 77.6258 176.479 77.6112C176.416 77.604 176.368 77.5985 176.334 77.5947L176.296 77.5905L176.285 77.5893L176.282 77.589L176.282 77.5889L176.281 77.5889C176.281 77.5889 176.281 77.5888 176.12 79.0802ZM227 84.0003C227.083 85.498 227.083 85.498 227.083 85.498L227.083 85.498L227.082 85.4981L227.075 85.4984L227.048 85.5L226.935 85.507C226.836 85.5133 226.688 85.5232 226.5 85.537C226.123 85.5646 225.584 85.6079 224.941 85.6706C223.65 85.7964 221.96 85.998 220.326 86.3019C219.735 86.4119 219.461 86.597 219.359 86.6957C219.311 86.7422 219.3 86.7701 219.299 86.7736L219.298 86.774C219.297 86.7767 219.296 86.7805 219.296 86.7935C219.3 86.8556 219.469 87.4608 220.7 87.9222C222.67 88.6602 224.735 89.4279 226.308 90.0113C227.094 90.303 227.757 90.5485 228.223 90.7211L228.766 90.9219L228.91 90.975L228.947 90.9886L228.956 90.992L228.959 90.9929L228.959 90.9931L228.959 90.9932L228.44 92.4003L227.92 93.8074L227.92 93.8073L227.919 93.8071L227.917 93.8062L227.908 93.8028L227.87 93.7891L227.726 93.7358L227.182 93.5347C226.715 93.3618 226.051 93.116 225.264 92.824C223.69 92.2401 221.622 91.4711 219.648 90.7316C217.869 90.0651 216.396 88.7145 216.301 86.9556C216.252 86.0439 216.603 85.1903 217.269 84.5438C217.911 83.9199 218.789 83.5365 219.778 83.3525C221.529 83.0268 223.313 82.815 224.65 82.6847C225.321 82.6194 225.884 82.574 226.281 82.545C226.479 82.5304 226.636 82.5199 226.745 82.513C226.799 82.5096 226.841 82.507 226.87 82.5053L226.904 82.5033L226.913 82.5028L226.915 82.5027L226.916 82.5026L226.917 82.5026C226.917 82.5026 226.917 82.5026 227 84.0003ZM199.938 106.701C199.941 106.632 199.944 106.561 199.947 106.488C200.023 104.777 200.145 102.019 198.188 101.912C196.148 101.8 195.331 104.727 195.407 106.185C195.482 107.643 195.715 109.843 197.251 110.139C198.788 110.435 199.867 108.384 199.938 106.701Z" fill="#D9C7BE"/>
<path d="M216.08 118.443C213.639 120.042 202.083 121.669 195.68 122.283L196.298 133.873C196.411 135.996 198.166 137.66 200.292 137.66H219.051C221.598 137.66 223.496 135.312 222.963 132.822L219.185 115.2C218.204 116.559 217.142 117.747 216.08 118.443Z" fill="#C2B2A9"/>
<path d="M165.08 15.3629C167 14.6429 189.44 28.3229 189.44 28.3229L176.96 33.4829C176.96 33.4829 163.16 16.0829 165.08 15.3629Z" fill="#A3A3A3"/>
<path d="M250.16 48.0029C248.96 52.9229 248.48 57.0029 249.08 61.9229L237.08 38.2829L238.88 33.4829L240.94 28.908C242.559 25.313 247.903 26.2411 248.215 30.1715C248.231 30.3788 248.264 30.5823 248.313 30.7845C248.775 32.7269 251.25 43.5336 250.16 48.0029Z" fill="#A3A3A3"/>
<path d="M167.505 29.6436C164.938 25.1394 158.497 15.3549 156.682 12.6111C156.389 12.1671 156.605 11.4714 157.137 11.4961C157.914 11.5322 158.727 11.1877 158.2 10.6155C157.791 10.1715 157.145 9.70589 156.565 9.26518C155.539 8.48437 156.178 7.90993 157.42 8.2551L176.96 13.6827C182 14.4027 187.4 16.3227 191.6 17.7627C195.8 19.2027 204.92 24.4827 204.92 24.4827C204.92 24.4827 213.68 24.7227 217.88 25.4427C222.08 26.1627 230.6 29.1627 230.6 29.1627C230.6 29.1627 237.08 16.8027 238.88 13.6827C240.8 11.0427 249.2 0.122746 250.16 0.00274635C250.717 -0.0668381 250.305 1.19513 250.048 2.73574C249.805 4.18925 251.281 4.52071 252.126 3.31349C252.473 2.8179 252.823 2.8403 252.8 3.4448C252.732 5.20559 252.227 9.04854 252.68 11.0427C253.26 13.5953 257.43 34.3213 257.706 35.6916C257.716 35.7413 257.724 35.7878 257.732 35.8378L262.4 64.6828L263.963 77.6428C263.963 77.6428 251.977 67.1018 249.349 62.4509C249.154 62.1057 249.054 61.7223 249.012 61.3279C248.52 56.6703 249.009 52.7231 250.16 48.0027C251.25 43.5334 248.775 32.7267 248.313 30.7843C248.265 30.5821 248.232 30.3786 248.215 30.1714C247.903 26.241 242.559 25.3128 240.94 28.9078L238.88 33.4827L237.08 38.2828L230.6 29.1627C230.6 29.1627 222.08 26.1627 217.88 25.4427C213.68 24.7227 204.92 24.4827 204.92 24.4827L189.44 28.3227C189.44 28.3227 167 14.6427 165.08 15.3627C163.16 16.0827 176.96 33.4827 176.96 33.4827L172.4 38.2828L169.872 34.0964C169.071 32.7696 168.273 30.99 167.505 29.6436Z" fill="#3F2422"/>
<g filter="url(#filter1_d)">
<path d="M2 56.1602C2 48.9805 7.8203 43.1602 15 43.1602H123C130.18 43.1602 136 48.9805 136 56.1602V91.607V99.8046C136 104.299 130.533 106.511 127.407 103.282L116.108 91.607H15C7.8203 91.607 2 85.7867 2 78.607V56.1602Z" fill="#212932"/>
<path d="M41.0039 75.1602L39.5781 71.1953H34.1191L32.7227 75.1602H30.2617L35.6035 60.8242H38.1426L43.4844 75.1602H41.0039ZM38.9629 69.1836L37.625 65.2969C37.5273 65.0365 37.3906 64.6263 37.2148 64.0664C37.0456 63.5065 36.9284 63.0964 36.8633 62.8359C36.6875 63.6367 36.4303 64.5124 36.0918 65.4629L34.8027 69.1836H38.9629ZM53.7824 75.1602L52.3859 70.1211C52.2167 69.5872 51.9107 68.347 51.468 66.4004H51.3801C51.0025 68.1582 50.703 69.4049 50.4816 70.1406L49.0461 75.1602H46.507L43.4797 64.3594H45.8234L47.2004 69.6816C47.5129 70.9967 47.7342 72.123 47.8645 73.0605H47.923C47.9882 72.5853 48.0858 72.0417 48.216 71.4297C48.3527 70.8112 48.4699 70.349 48.5676 70.043L50.2082 64.3594H52.7277L54.3195 70.043C54.4172 70.362 54.5376 70.8503 54.6809 71.5078C54.8306 72.1654 54.9185 72.6764 54.9445 73.041H55.0227C55.1203 72.2402 55.3482 71.1204 55.7062 69.6816L57.1027 64.3594H59.4074L56.3605 75.1602H53.7824ZM70.6527 69.7402C70.6527 71.5046 70.2003 72.8815 69.2953 73.8711C68.3904 74.8607 67.1306 75.3555 65.516 75.3555C64.5069 75.3555 63.615 75.1276 62.8402 74.6719C62.0655 74.2161 61.4698 73.5618 61.0531 72.709C60.6365 71.8561 60.4281 70.8665 60.4281 69.7402C60.4281 67.9889 60.8773 66.6217 61.7758 65.6387C62.6742 64.6556 63.9405 64.1641 65.5746 64.1641C67.1371 64.1641 68.3741 64.6686 69.2855 65.6777C70.197 66.6803 70.6527 68.0345 70.6527 69.7402ZM62.7914 69.7402C62.7914 72.2337 63.7126 73.4805 65.5551 73.4805C67.378 73.4805 68.2895 72.2337 68.2895 69.7402C68.2895 67.2728 67.3715 66.0391 65.5355 66.0391C64.572 66.0391 63.8721 66.3581 63.4359 66.9961C63.0062 67.6341 62.7914 68.5488 62.7914 69.7402ZM82.6793 69.7402C82.6793 71.5046 82.2268 72.8815 81.3219 73.8711C80.4169 74.8607 79.1572 75.3555 77.5426 75.3555C76.5335 75.3555 75.6415 75.1276 74.8668 74.6719C74.0921 74.2161 73.4964 73.5618 73.0797 72.709C72.663 71.8561 72.4547 70.8665 72.4547 69.7402C72.4547 67.9889 72.9039 66.6217 73.8023 65.6387C74.7008 64.6556 75.9671 64.1641 77.6012 64.1641C79.1637 64.1641 80.4007 64.6686 81.3121 65.6777C82.2236 66.6803 82.6793 68.0345 82.6793 69.7402ZM74.818 69.7402C74.818 72.2337 75.7392 73.4805 77.5816 73.4805C79.4046 73.4805 80.316 72.2337 80.316 69.7402C80.316 67.2728 79.398 66.0391 77.5621 66.0391C76.5986 66.0391 75.8987 66.3581 75.4625 66.9961C75.0328 67.6341 74.818 68.5488 74.818 69.7402ZM94.7059 69.7402C94.7059 71.5046 94.2534 72.8815 93.3484 73.8711C92.4435 74.8607 91.1837 75.3555 89.5691 75.3555C88.56 75.3555 87.6681 75.1276 86.8934 74.6719C86.1186 74.2161 85.5229 73.5618 85.1062 72.709C84.6896 71.8561 84.4812 70.8665 84.4812 69.7402C84.4812 67.9889 84.9305 66.6217 85.8289 65.6387C86.7273 64.6556 87.9936 64.1641 89.6277 64.1641C91.1902 64.1641 92.4272 64.6686 93.3387 65.6777C94.2501 66.6803 94.7059 68.0345 94.7059 69.7402ZM86.8445 69.7402C86.8445 72.2337 87.7658 73.4805 89.6082 73.4805C91.4311 73.4805 92.3426 72.2337 92.3426 69.7402C92.3426 67.2728 91.4246 66.0391 89.5887 66.0391C88.6251 66.0391 87.9253 66.3581 87.4891 66.9961C87.0594 67.6341 86.8445 68.5488 86.8445 69.7402ZM106.732 69.7402C106.732 71.5046 106.28 72.8815 105.375 73.8711C104.47 74.8607 103.21 75.3555 101.596 75.3555C100.587 75.3555 99.6947 75.1276 98.9199 74.6719C98.1452 74.2161 97.5495 73.5618 97.1328 72.709C96.7161 71.8561 96.5078 70.8665 96.5078 69.7402C96.5078 67.9889 96.957 66.6217 97.8555 65.6387C98.7539 64.6556 100.02 64.1641 101.654 64.1641C103.217 64.1641 104.454 64.6686 105.365 65.6777C106.277 66.6803 106.732 68.0345 106.732 69.7402ZM98.8711 69.7402C98.8711 72.2337 99.7923 73.4805 101.635 73.4805C103.458 73.4805 104.369 72.2337 104.369 69.7402C104.369 67.2728 103.451 66.0391 101.615 66.0391C100.652 66.0391 99.9518 66.3581 99.5156 66.9961C99.0859 67.6341 98.8711 68.5488 98.8711 69.7402Z" fill="#A6ADB5"/>
</g>
<defs>
<filter id="filter0_d" x="146.88" y="0" width="128.48" height="145.52" filterUnits="userSpaceOnUse" color-interpolation-filters="sRGB">
<feFlood flood-opacity="0" result="BackgroundImageFix"/>
<feColorMatrix in="SourceAlpha" type="matrix" values="0 0 0 0 0 0 0 0 0 0 0 0 0 0 0 0 0 0 127 0"/>
<feOffset dx="2" dy="4"/>
<feGaussianBlur stdDeviation="2"/>
<feColorMatrix type="matrix" values="0 0 0 0 0 0 0 0 0 0 0 0 0 0 0 0 0 0 0.25 0"/>
<feBlend mode="normal" in2="BackgroundImageFix" result="effect1_dropShadow"/>
<feBlend mode="normal" in="SourceGraphic" in2="effect1_dropShadow" result="shape"/>
</filter>
<filter id="filter1_d" x="0" y="43.1602" width="142" height="69.6545" filterUnits="userSpaceOnUse" color-interpolation-filters="sRGB">
<feFlood flood-opacity="0" result="BackgroundImageFix"/>
<feColorMatrix in="SourceAlpha" type="matrix" values="0 0 0 0 0 0 0 0 0 0 0 0 0 0 0 0 0 0 127 0"/>
<feOffset dx="2" dy="4"/>
<feGaussianBlur stdDeviation="2"/>
<feColorMatrix type="matrix" values="0 0 0 0 0 0 0 0 0 0 0 0 0 0 0 0 0 0 0.25 0"/>
<feBlend mode="normal" in2="BackgroundImageFix" result="effect1_dropShadow"/>
<feBlend mode="normal" in="SourceGraphic" in2="effect1_dropShadow" result="shape"/>
</filter>
</defs>
</svg>
