<svg width="26" height="26" viewBox="0 0 26 26" fill="none" xmlns="http://www.w3.org/2000/svg">
<path fill-rule="evenodd" clip-rule="evenodd" d="M11.9659 3.25H14.0341C15.1763 3.25 16.1023 4.12304 16.1023 5.2C16.1023 6.43242 17.4209 7.21596 18.5033 6.62673L18.6133 6.56688C19.6025 6.02841 20.8674 6.34796 21.4385 7.28063L22.4726 8.96938C23.0437 9.90205 22.7048 11.0947 21.7156 11.6331C20.6326 12.2226 20.6326 13.7774 21.7156 14.3669C22.7048 14.9053 23.0437 16.0979 22.4726 17.0306L21.4385 18.7194C20.8674 19.652 19.6025 19.9716 18.6133 19.4331L18.5033 19.3733C17.4209 18.784 16.1023 19.5676 16.1023 20.8C16.1023 21.877 15.1763 22.75 14.0341 22.75H11.9659C10.8237 22.75 9.89772 21.877 9.89772 20.8C9.89772 19.5676 8.5791 18.7841 7.49667 19.3733L7.38672 19.4331C6.39752 19.9716 5.13264 19.6521 4.56152 18.7194L3.52743 17.0306C2.95632 16.098 3.29524 14.9054 4.28444 14.3669C5.36739 13.7774 5.36739 12.2226 4.28444 11.6331C3.29524 11.0946 2.95632 9.90204 3.52743 8.96937L4.56153 7.28062C5.13264 6.34795 6.39753 6.02839 7.38673 6.56687L7.49667 6.62672C8.5791 7.21594 9.89772 6.43241 9.89772 5.2C9.89772 4.12305 10.8237 3.25 11.9659 3.25ZM13 16.25C14.7949 16.25 16.25 14.7949 16.25 13C16.25 11.2051 14.7949 9.75 13 9.75C11.2051 9.75 9.75001 11.2051 9.75001 13C9.75001 14.7949 11.2051 16.25 13 16.25Z" fill="#BBBBBB"/>
</svg>
