<svg width="20" height="20" viewBox="0 0 20 20" fill="none" xmlns="http://www.w3.org/2000/svg">
<path d="M9.25177 2.79617C9.91364 2.3234 10.833 2.79653 10.833 3.6099V16.3902C10.833 17.2036 9.91364 17.6767 9.25177 17.2039L4.99967 14.1667H2.83301C1.72844 14.1667 0.833008 13.2713 0.833008 12.1667V7.83338C0.833008 6.72881 1.72844 5.83338 2.83301 5.83338H4.99967L9.25177 2.79617Z" fill="white"/>
<path d="M13.3275 14.0877C14.3616 13.0351 14.9994 11.592 14.9994 9.99995C14.9994 8.40117 14.3562 6.95262 13.3145 5.89893" stroke="white" stroke-width="2" stroke-linecap="round" stroke-linejoin="round"/>
<path d="M15.6484 3.51831C17.3073 5.17715 18.3333 7.46882 18.3333 10.0001C18.3333 12.5314 17.3073 14.8231 15.6484 16.4819" stroke="white" stroke-width="2" stroke-linecap="round" stroke-linejoin="round"/>
</svg>
