<svg width="26" height="26" viewBox="0 0 26 26" fill="none" xmlns="http://www.w3.org/2000/svg">
<path fill-rule="evenodd" clip-rule="evenodd" d="M10.8332 3.25H12.0713C15.5762 3.25 18.5143 5.72796 19.2959 9.06137C19.4292 9.62983 19.4998 10.2232 19.4998 10.8333C19.4998 15.0215 16.174 18.4167 12.0713 18.4167H7.54159H4.64269C3.27513 18.4167 2.1665 17.2849 2.1665 15.8889V12.0972C2.1665 7.21104 6.0467 3.25 10.8332 3.25ZM12.3808 20.5833H8.72948C10.0693 21.9236 11.9043 22.75 13.9284 22.75H18.4581H21.357C22.7245 22.75 23.8332 21.6183 23.8332 20.2222V16.4305C23.8332 14.185 23.0137 12.1349 21.6633 10.5748C21.6654 10.6607 21.6665 10.7469 21.6665 10.8333C21.6665 16.2181 17.5091 20.5833 12.3808 20.5833Z" fill="#BBBBBB"/>
</svg>
