<svg width="20" height="20" viewBox="0 0 20 20" fill="none" xmlns="http://www.w3.org/2000/svg">
<path d="M2.91699 3.91675V7.50008C2.91699 7.7302 3.10354 7.91675 3.33366 7.91675C3.56378 7.91675 3.75033 7.7302 3.75033 7.50008V4.75008C3.75033 4.1978 4.19804 3.75008 4.75033 3.75008H7.50033C7.73044 3.75008 7.91699 3.56353 7.91699 3.33341C7.91699 3.1033 7.73044 2.91675 7.50033 2.91675H3.91699C3.36471 2.91675 2.91699 3.36446 2.91699 3.91675Z" fill="white" stroke="white"/>
<path d="M16.0823 2.91654L12.4997 2.91669C12.2695 2.9167 12.083 3.10324 12.083 3.33336C12.083 3.56348 12.2696 3.75003 12.4997 3.75002L15.2488 3.74989C15.8011 3.74986 16.2489 4.19758 16.2489 4.74989V7.49967C16.2489 7.72999 16.4356 7.91671 16.6659 7.91671C16.8963 7.91671 17.083 7.72995 17.0829 7.4996L17.0824 3.91638C17.0823 3.36414 16.6346 2.91652 16.0823 2.91654Z" fill="white" stroke="white"/>
<path d="M17.083 16.0835V12.5C17.083 12.2698 16.8965 12.0833 16.6663 12.0833C16.4362 12.0833 16.2497 12.2698 16.2497 12.5V15.2501C16.2497 15.8024 15.8019 16.2501 15.2496 16.2501L12.4997 16.25C12.2696 16.25 12.083 16.4365 12.083 16.6666C12.083 16.8968 12.2695 17.0833 12.4997 17.0833L16.083 17.0835C16.6353 17.0835 17.083 16.6358 17.083 16.0835Z" fill="white" stroke="white"/>
<path d="M3.91309 17.0833H7.49967C7.72979 17.0833 7.91634 16.8967 7.91634 16.6666C7.91634 16.4365 7.72979 16.2499 7.49967 16.2499H4.74642C4.19413 16.2499 3.74642 15.8022 3.74642 15.2499L3.74642 12.4999C3.74642 12.2698 3.55987 12.0833 3.32975 12.0833C3.09963 12.0833 2.91309 12.2698 2.91309 12.4999L2.91309 16.0833C2.91309 16.6355 3.3608 17.0833 3.91309 17.0833Z" fill="white" stroke="white"/>
</svg>
