<svg width="150" height="150" viewBox="0 0 150 150" fill="none" xmlns="http://www.w3.org/2000/svg">
<mask id="mask0" mask-type="alpha" maskUnits="userSpaceOnUse" x="0" y="0" width="150" height="150">
<circle cx="75" cy="75" r="75" fill="#C4C4C4"/>
</mask>
<g mask="url(#mask0)">
<mask id="mask1" mask-type="alpha" maskUnits="userSpaceOnUse" x="0" y="0" width="150" height="150">
<rect width="150" height="150" fill="#C4C4C4"/>
</mask>
<g mask="url(#mask1)">
<rect x="-23.04" y="-24.96" width="190.08" height="204" fill="#151E27"/>
<rect x="40.0798" y="84.2402" width="56.64" height="60.72" fill="black"/>
<path fill-rule="evenodd" clip-rule="evenodd" d="M20.7184 130.285C16.5856 133.303 15.3023 136.654 14.9763 137.752C14.9033 137.998 14.8799 138.252 14.8799 138.508V149.36C14.8799 151.569 16.6707 153.36 18.8799 153.36H131.36C133.569 153.36 135.36 151.569 135.36 149.36V139.358C135.36 138.628 135.161 137.916 134.818 137.272C133.408 134.632 129.701 126.895 129.12 117.6C128.4 106.083 129.963 93.4826 129.963 93.4826L128.4 80.5226L123.732 51.6776C123.724 51.6276 123.716 51.5811 123.706 51.5314C123.43 50.1611 119.26 29.4351 118.68 26.8826C118.341 25.3926 118.538 22.8707 118.687 20.9561C118.737 20.3082 118.782 19.7299 118.8 19.2846C118.823 18.6801 118.473 18.6577 118.126 19.1533C117.281 20.3606 115.805 20.0291 116.048 18.5756C116.107 18.222 116.174 17.8831 116.236 17.5716C116.443 16.5258 116.589 15.789 116.16 15.8426C115.2 15.9626 106.8 26.8826 104.88 29.5226C103.08 32.6426 96.5999 45.0026 96.5999 45.0026C96.5999 45.0026 88.0799 42.0026 83.8799 41.2826C79.6799 40.5626 70.9199 40.3226 70.9199 40.3226C70.9199 40.3226 61.7999 35.0426 57.5999 33.6026C57.3522 33.5177 57.1004 33.4311 56.8447 33.3432C52.7643 31.9403 47.7027 30.2001 42.9599 29.5226L23.4204 24.0949C22.1777 23.7498 21.539 24.3242 22.5654 25.105C22.6456 25.166 22.7271 25.2275 22.809 25.2894C23.319 25.6743 23.8472 26.0728 24.1996 26.4553C24.7268 27.0276 23.9141 27.372 23.1368 27.3359C22.6051 27.3112 22.3888 28.007 22.6824 28.451C24.497 31.1948 30.9379 40.9792 33.5053 45.4835C33.8493 46.087 34.1996 46.7776 34.5535 47.4754C34.9891 48.3343 35.4303 49.2042 35.8723 49.9362L38.3999 54.1226C38.0936 54.5164 36.9895 55.6283 35.6461 56.9811C33.3055 59.3381 30.2385 62.4265 29.3999 63.7226C29.2557 63.9454 29.06 64.2355 28.8238 64.5856C26.8979 67.4404 22.2826 74.2815 20.9999 81.1226C19.7353 87.8672 20.6918 90.1695 20.9436 89.4111C20.9997 89.2421 21.023 89.0656 21.0463 88.8889C21.0658 88.7411 21.0853 88.5931 21.1241 88.4493C21.4749 87.1477 22.53 83.4711 23.7863 81.353C24.1251 80.7818 24.5465 80.7931 24.5659 81.4569C24.5839 82.0695 24.5663 82.945 24.5457 83.9725C24.4897 86.7616 24.4112 90.6708 24.9599 93.4826C25.9199 98.4026 31.0799 106.083 31.0799 106.083C31.0799 106.083 29.2799 109.083 27.8399 114.243C27.0811 116.961 26.9887 119.247 26.9131 121.117C26.8452 122.797 26.7908 124.141 26.2799 125.163C25.6094 126.504 24.4763 127.336 23.2541 128.234C22.5915 128.72 21.9027 129.226 21.2472 129.843C21.0804 130 20.9033 130.149 20.7184 130.285ZM42.12 94.92C41.9589 96.4113 41.9588 96.4113 41.9588 96.4113L41.959 96.4113L41.9605 96.4115L41.9681 96.4123L42.0008 96.416C42.0302 96.4193 42.0747 96.4243 42.1331 96.4311C42.2499 96.4446 42.4224 96.4651 42.6417 96.4926C43.0803 96.5476 43.705 96.6302 44.4446 96.7405C45.9291 96.9619 47.8535 97.2912 49.6587 97.7256C50.2637 97.8712 50.5256 98.0694 50.6117 98.1608C50.6188 98.1684 50.6244 98.1746 50.6288 98.1798C50.6087 98.2292 50.5484 98.3414 50.3755 98.4936C50.1366 98.7039 49.7305 98.9429 49.1213 99.117C47.1296 99.686 45.063 100.287 43.495 100.746C42.7108 100.975 42.051 101.169 41.5871 101.306L41.0471 101.465L40.9041 101.507L40.8673 101.518L40.8579 101.521L40.8556 101.521L40.8549 101.521L40.8548 101.522L41.28 102.96L41.7054 104.398L41.7055 104.398L41.7061 104.398L41.7084 104.398L41.7176 104.395L41.754 104.384L41.8962 104.342L42.4342 104.184C42.8968 104.047 43.555 103.854 44.3373 103.625C45.9022 103.167 47.9622 102.568 49.9455 102.002C51.7414 101.488 53.3617 100.307 53.6082 98.5751C53.7388 97.658 53.4323 96.7803 52.7961 96.1045C52.1887 95.4593 51.332 95.0426 50.3606 94.8089C48.4351 94.3455 46.4146 94.0011 44.8871 93.7733C44.1206 93.659 43.4724 93.5732 43.0147 93.5159C42.7857 93.4872 42.6041 93.4656 42.479 93.4511C42.4163 93.4438 42.3678 93.4383 42.3345 93.4346L42.296 93.4303L42.2856 93.4292L42.2827 93.4288L42.2817 93.4287L42.2814 93.4287C42.2813 93.4287 42.2812 93.4287 42.12 94.92ZM93 99.8401C93.0829 101.338 93.083 101.338 93.0831 101.338L93.083 101.338L93.0818 101.338L93.0755 101.338L93.0481 101.34L92.9356 101.347C92.836 101.353 92.6883 101.363 92.5 101.377C92.123 101.404 91.584 101.448 90.9409 101.51C89.6502 101.636 87.9603 101.838 86.3265 102.142C85.7352 102.252 85.4611 102.437 85.3595 102.536C85.3117 102.582 85.3002 102.61 85.2987 102.613L85.2986 102.614C85.298 102.615 85.2973 102.617 85.2968 102.62C85.2965 102.623 85.2963 102.627 85.2966 102.633C85.3 102.695 85.4688 103.301 86.7004 103.762C88.6704 104.5 90.7352 105.268 92.3079 105.851C93.0941 106.143 93.7572 106.388 94.2236 106.561L94.7666 106.762L94.9103 106.815L94.9472 106.828L94.9565 106.832L94.9589 106.833L94.9594 106.833L94.9596 106.833L94.44 108.24L93.9203 109.647L93.9201 109.647L93.9195 109.647L93.9171 109.646L93.9077 109.643L93.8707 109.629L93.7265 109.576L93.1826 109.374C92.7155 109.202 92.0517 108.956 91.2645 108.664C89.6903 108.08 87.6222 107.311 85.648 106.571C83.8688 105.905 82.3962 104.554 82.301 102.795C82.2517 101.884 82.6036 101.03 83.2692 100.384C83.9115 99.7597 84.7888 99.3763 85.7779 99.1924C87.5292 98.8666 89.3131 98.6548 90.65 98.5246C91.3207 98.4592 91.884 98.4139 92.2808 98.3848C92.4794 98.3703 92.6365 98.3598 92.7449 98.3529L92.8242 98.3479L92.8702 98.3451L92.9038 98.3432L92.913 98.3427L92.9157 98.3425L92.9165 98.3425L92.9168 98.3424C92.9169 98.3424 92.917 98.3424 93 99.8401ZM65.947 122.329L65.9471 122.327C66.023 120.617 66.1454 117.859 64.1886 117.752C62.1482 117.64 61.3316 120.567 61.4071 122.025C61.4825 123.482 61.7149 125.683 63.2513 125.979C64.7877 126.275 65.8668 124.224 65.9378 122.541C65.9407 122.472 65.9438 122.402 65.947 122.329Z" fill="#4E2C2A"/>
<path fill-rule="evenodd" clip-rule="evenodd" d="M42.8399 125.163C45.7199 128.523 56.1599 138.165 57.8399 138.165C57.9568 138.165 58.0797 138.177 58.234 138.192C58.7419 138.241 59.5895 138.323 61.6799 138.123L62.7568 148.262C62.9656 150.227 64.5789 151.746 66.5536 151.835L84.5142 152.648C87.1163 152.766 89.1349 150.405 88.6143 147.852L85.1846 131.04C87.416 127.947 89.223 123.966 89.6399 122.883C89.8906 122.231 88.8633 122.773 87.5472 123.468C85.7136 124.436 83.3193 125.7 83.0399 124.443C82.8639 123.651 84.5585 121.811 86.8645 119.307C90.6003 115.251 95.9409 109.452 97.5331 103.544C97.739 102.781 97.6323 101.975 97.3916 101.221C95.9151 96.6008 92.7601 82.9604 92.6432 82.4543C92.6397 82.4391 92.6382 82.4328 92.635 82.4201L92.6334 82.4133C91.7054 78.628 85.1982 77.6323 82.4698 80.4153C82.0832 80.8095 81.6787 81.2064 81.2556 81.6042C81.0872 81.7625 80.901 81.9041 80.7112 82.0361C79.419 82.935 78.3662 84.1084 77.2684 85.332C75.3738 87.4437 73.3451 89.7049 69.7199 90.9626C67.5598 92.0118 69.2721 89.998 71.0696 87.884C72.1199 86.6488 73.1992 85.3794 73.552 84.6669C73.8399 84.0856 72.948 84.3479 72.442 84.7537C70.5985 86.2324 67.7154 88.2362 66.9258 88.781C66.7883 88.8758 66.6612 88.9758 66.5326 89.0821C65.5772 89.8714 62.7284 91.9486 60.0787 92.9201C57.9372 93.7053 57.1794 91.475 58.459 89.5867C61.9532 84.4303 65.7448 77.9727 62.2799 81.1226C61.1915 82.112 59.5729 83.0606 59.0383 83.3631C58.9191 83.4306 58.8032 83.5013 58.6902 83.5787L55.8606 85.5147C55.5812 85.7059 55.2788 85.8608 54.9604 85.9757L46.8715 88.8968C46.8238 88.914 46.7784 88.9313 46.7316 88.9509C46.1268 89.2048 41.6858 91.1355 40.6799 93.4826C39.8608 95.3938 39.6629 97.9261 39.6151 99.0382C39.599 99.4134 39.5469 99.7852 39.4482 100.148C39.0379 101.653 37.9058 106.021 37.4399 110.014C37.1999 112.071 37.1367 114.028 37.4399 115.443C38.4207 120.02 39.8223 121.651 42.4474 124.706C42.5753 124.854 42.7061 125.007 42.8399 125.163ZM42.12 94.92C41.9589 96.4113 41.9588 96.4113 41.9588 96.4113L41.959 96.4113L41.9605 96.4115L41.9681 96.4123L42.0008 96.416C42.0302 96.4193 42.0747 96.4243 42.1331 96.4311C42.2499 96.4446 42.4224 96.4651 42.6417 96.4926C43.0803 96.5476 43.705 96.6302 44.4446 96.7405C45.9291 96.9619 47.8535 97.2912 49.6587 97.7256C50.2637 97.8712 50.5256 98.0694 50.6117 98.1608C50.6188 98.1684 50.6244 98.1746 50.6288 98.1798C50.6087 98.2292 50.5484 98.3414 50.3755 98.4936C50.1366 98.7039 49.7305 98.9429 49.1213 99.117C47.1296 99.686 45.063 100.287 43.495 100.746C42.7108 100.975 42.051 101.169 41.5871 101.306L41.0471 101.465L40.9041 101.507L40.8673 101.518L40.8579 101.521L40.8556 101.521L40.8549 101.521L40.8548 101.522L41.28 102.96L41.5938 104.021C41.7054 104.398 41.7054 104.398 41.7054 104.398L41.7055 104.398L41.7061 104.398L41.7084 104.398L41.7176 104.395L41.754 104.384L41.8962 104.342L42.4342 104.184C42.8968 104.047 43.555 103.854 44.3373 103.625C45.9022 103.167 47.9622 102.568 49.9455 102.002C51.7414 101.488 53.3617 100.307 53.6082 98.5751C53.7388 97.658 53.4323 96.7803 52.7961 96.1045C52.1887 95.4593 51.332 95.0426 50.3606 94.8089C48.4351 94.3455 46.4146 94.0011 44.8871 93.7733C44.1206 93.659 43.4724 93.5732 43.0147 93.5159C42.7857 93.4872 42.6041 93.4656 42.479 93.4511C42.4163 93.4438 42.3678 93.4383 42.3345 93.4346L42.296 93.4303L42.2856 93.4292L42.2827 93.4288L42.2817 93.4287L42.2814 93.4287C42.2813 93.4287 42.2812 93.4287 42.12 94.92ZM93 99.8401C93.0829 101.338 93.083 101.338 93.0831 101.338L93.083 101.338L93.0818 101.338L93.0755 101.338L93.0481 101.34L92.9356 101.347C92.836 101.353 92.6883 101.363 92.5 101.377C92.123 101.404 91.584 101.448 90.9409 101.51C89.6502 101.636 87.9603 101.838 86.3265 102.142C85.7352 102.252 85.4611 102.437 85.3595 102.536C85.3117 102.582 85.3002 102.61 85.2987 102.613L85.2986 102.614C85.298 102.615 85.2973 102.617 85.2968 102.62C85.2965 102.623 85.2963 102.627 85.2966 102.633C85.3 102.695 85.4688 103.301 86.7004 103.762C88.6704 104.5 90.7352 105.268 92.3079 105.851C93.0941 106.143 93.7572 106.388 94.2236 106.561L94.7666 106.762L94.9103 106.815L94.9472 106.828L94.9565 106.832L94.9589 106.833L94.9594 106.833L94.9596 106.833C94.9596 106.833 94.9596 106.833 94.44 108.24C93.9203 109.647 93.9203 109.647 93.9203 109.647L93.9201 109.647L93.9195 109.647L93.9171 109.646L93.9077 109.643L93.8707 109.629L93.7265 109.576L93.1826 109.374C92.7155 109.202 92.0517 108.956 91.2645 108.664C89.6903 108.08 87.6222 107.311 85.648 106.571C83.8688 105.905 82.3962 104.554 82.301 102.795C82.2517 101.884 82.6036 101.03 83.2692 100.384C83.9115 99.7597 84.7888 99.3763 85.7779 99.1924C87.5292 98.8666 89.3131 98.6548 90.65 98.5246C91.3207 98.4592 91.884 98.4139 92.2808 98.3848C92.4794 98.3703 92.6365 98.3598 92.7449 98.3529L92.8242 98.3479L92.8702 98.3451L92.9038 98.3432L92.913 98.3427L92.9157 98.3425L92.9165 98.3425L92.9168 98.3424C92.9169 98.3424 92.917 98.3424 93 99.8401ZM65.947 122.329L65.9471 122.327C66.023 120.617 66.1454 117.859 64.1886 117.752C62.1482 117.64 61.3316 120.567 61.4071 122.025C61.4825 123.482 61.7149 125.683 63.2513 125.979C64.7877 126.275 65.8668 124.224 65.9378 122.541C65.9407 122.472 65.9438 122.402 65.947 122.329Z" fill="#F9E0D3"/>
<path d="M82.0799 134.283C79.6389 135.882 68.0829 137.509 61.6799 138.123L62.7568 148.262C62.9656 150.227 64.5789 151.746 66.5536 151.835L84.5142 152.648C87.1163 152.766 89.1349 150.405 88.6143 147.852L85.1846 131.04C84.2043 132.399 83.1421 133.587 82.0799 134.283Z" fill="#E6C6B6"/>
<path d="M83.8799 41.2826C79.6799 40.5626 70.9199 40.3226 70.9199 40.3226L55.4399 44.1626L42.9599 49.3226C42.9599 49.3226 29.1599 31.9226 31.0799 31.2026C32.9999 30.4826 55.4399 44.1626 55.4399 44.1626L70.9199 40.3226C70.9199 40.3226 79.6799 40.5626 83.8799 41.2826C88.0799 42.0026 96.5999 45.0026 96.5999 45.0026L103.08 54.1226L104.88 49.3226L113.04 31.2026L114.214 45.9958C114.231 46.2133 114.266 46.4286 114.317 46.6408C114.789 48.6275 117.247 59.3859 116.16 63.8426C114.96 68.7626 114.48 72.8426 115.08 77.7626L103.08 54.1226L96.5999 45.0026C96.5999 45.0026 88.0799 42.0026 83.8799 41.2826Z" fill="white"/>
<path d="M33.5053 45.4835C30.9379 40.9792 24.497 31.1948 22.6824 28.451C22.3888 28.007 22.6051 27.3112 23.1368 27.3359C23.9141 27.372 24.7268 27.0276 24.1996 26.4553C23.7906 26.0114 23.1447 25.5457 22.5654 25.105C21.539 24.3242 22.1777 23.7498 23.4204 24.0949L42.9599 29.5226C47.9999 30.2426 53.3999 32.1626 57.5999 33.6026C61.7999 35.0426 70.9199 40.3226 70.9199 40.3226C70.9199 40.3226 79.6799 40.5626 83.8799 41.2826C88.0799 42.0026 96.5999 45.0026 96.5999 45.0026C96.5999 45.0026 103.08 32.6426 104.88 29.5226C106.8 26.8826 115.2 15.9626 116.16 15.8426C116.717 15.773 116.305 17.035 116.048 18.5756C115.805 20.0291 117.281 20.3606 118.126 19.1533C118.473 18.6577 118.823 18.6801 118.8 19.2846C118.732 21.0454 118.227 24.8884 118.68 26.8826C119.26 29.4351 123.43 50.1611 123.706 51.5314C123.716 51.5811 123.724 51.6276 123.732 51.6776L128.4 80.5226L129.963 93.4826C129.963 93.4826 117.977 82.9417 115.349 78.2908C115.154 77.9455 115.054 77.5621 115.012 77.1678C114.52 72.5101 115.009 68.563 116.16 63.8426C117.247 59.3859 114.789 48.6275 114.317 46.6408C114.266 46.4286 114.231 46.2133 114.214 45.9958L113.657 38.9729C113.493 36.9106 110.689 36.4236 109.839 38.3099L104.88 49.3226L103.08 54.1226L96.5999 45.0026C96.5999 45.0026 88.0799 42.0026 83.8799 41.2826C79.6799 40.5626 70.9199 40.3226 70.9199 40.3226L57.0599 43.7607C56.0232 44.0179 54.931 43.8523 54.016 43.3013C49.0495 40.3112 32.7059 30.5928 31.0799 31.2026C29.6409 31.7422 37.0319 41.6511 40.8256 46.5821C42.0407 48.1615 41.9396 50.3966 40.5671 51.8413L38.3999 54.1226L35.8723 49.9362C35.0712 48.6095 34.2728 46.8299 33.5053 45.4835Z" fill="#3F2422"/>
</g>
</g>
</svg>