<svg width="20" height="20" viewBox="0 0 20 20" fill="none" xmlns="http://www.w3.org/2000/svg">
<path d="M7.92383 6.91699L7.92383 3.33366C7.92383 3.10354 7.73728 2.91699 7.50716 2.91699C7.27704 2.91699 7.09049 3.10354 7.09049 3.33366L7.09049 6.08366C7.09049 6.63594 6.64278 7.08366 6.09049 7.08366L3.34049 7.08366C3.11038 7.08366 2.92383 7.27021 2.92383 7.50033C2.92383 7.73044 3.11038 7.91699 3.34049 7.91699L6.92383 7.91699C7.47611 7.91699 7.92383 7.46928 7.92383 6.91699Z" fill="white" stroke="white"/>
<path d="M13.0847 7.91646L16.6673 7.91632C16.8974 7.91631 17.084 7.72976 17.084 7.49965C17.084 7.26953 16.8974 7.08298 16.6673 7.08299L13.9182 7.08312C13.3659 7.08315 12.9181 6.63543 12.9181 6.08312V3.33334C12.9181 3.10301 12.7314 2.9163 12.5011 2.9163C12.2707 2.9163 12.084 3.10306 12.0841 3.33341L12.0846 6.91663C12.0847 7.46886 12.5324 7.91649 13.0847 7.91646Z" fill="white" stroke="white"/>
<path d="M12.0762 13.083V16.6665C12.0762 16.8967 12.2627 17.0832 12.4928 17.0832C12.723 17.0832 12.9095 16.8967 12.9095 16.6665V13.9164C12.9095 13.3641 13.3573 12.9164 13.9096 12.9164L16.6595 12.9165C16.8896 12.9165 17.0762 12.73 17.0762 12.4999C17.0762 12.2697 16.8896 12.0832 16.6595 12.0832L13.0762 12.083C12.5239 12.083 12.0762 12.5307 12.0762 13.083Z" fill="white" stroke="white"/>
<path d="M6.91797 12.084H3.33138C3.10126 12.084 2.91471 12.2705 2.91471 12.5007C2.91471 12.7308 3.10126 12.9173 3.33138 12.9173H6.08464C6.63692 12.9173 7.08464 13.365 7.08464 13.9173V16.6673C7.08464 16.8974 7.27118 17.084 7.5013 17.084C7.73142 17.084 7.91797 16.8974 7.91797 16.6673V13.084C7.91797 12.5317 7.47025 12.084 6.91797 12.084Z" fill="white" stroke="white"/>
</svg>
